<svg width="20" height="20" viewBox="0 0 20 20" fill="none" xmlns="http://www.w3.org/2000/svg">
<g clip-path="url(#clip0_84_289)">
<path d="M9.86944 17.9303C14.3688 17.9303 18.0162 14.2828 18.0162 9.7835C18.0162 5.28416 14.3688 1.63672 9.86944 1.63672C5.3701 1.63672 1.72266 5.28416 1.72266 9.7835C1.72266 14.2828 5.3701 17.9303 9.86944 17.9303Z" stroke="#838383" stroke-width="1.46642" stroke-linecap="round" stroke-linejoin="round"/>
<path d="M1.72266 9.7832H18.0162" stroke="#838383" stroke-width="1.46642" stroke-linecap="round" stroke-linejoin="round"/>
<path d="M9.86907 1.63672C11.9068 3.8676 13.0648 6.7627 13.1278 9.7835C13.0648 12.8043 11.9068 15.6994 9.86907 17.9303C7.83133 15.6994 6.67328 12.8043 6.61035 9.7835C6.67328 6.7627 7.83133 3.8676 9.86907 1.63672Z" stroke="#838383" stroke-width="1.46642" stroke-linecap="round" stroke-linejoin="round"/>
</g>
<defs>
<clipPath id="clip0_84_289">
<rect width="19.5523" height="19.5523" fill="white" transform="translate(0.0932617 0.00683594)"/>
</clipPath>
</defs>
</svg>
