<svg width="20" height="21" viewBox="0 0 20 21" fill="none" xmlns="http://www.w3.org/2000/svg">
<g clip-path="url(#clip0_84_260)">
<path d="M9.86993 18.5397C14.3693 18.5397 18.0167 14.8922 18.0167 10.3929C18.0167 5.89353 14.3693 2.24609 9.86993 2.24609C5.37058 2.24609 1.72314 5.89353 1.72314 10.3929C1.72314 14.8922 5.37058 18.5397 9.86993 18.5397Z" stroke="#838383" stroke-width="1.46642" stroke-linecap="round" stroke-linejoin="round"/>
<path d="M1.72314 10.3926H18.0167" stroke="#838383" stroke-width="1.46642" stroke-linecap="round" stroke-linejoin="round"/>
<path d="M9.86955 2.24609C11.9073 4.47697 13.0653 7.37208 13.1283 10.3929C13.0653 13.4137 11.9073 16.3088 9.86955 18.5397C7.83181 16.3088 6.67377 13.4137 6.61084 10.3929C6.67377 7.37208 7.83181 4.47697 9.86955 2.24609Z" stroke="#838383" stroke-width="1.46642" stroke-linecap="round" stroke-linejoin="round"/>
</g>
<defs>
<clipPath id="clip0_84_260">
<rect width="19.5523" height="19.5523" fill="white" transform="translate(0.09375 0.616211)"/>
</clipPath>
</defs>
</svg>
