<svg width="20" height="21" viewBox="0 0 20 21" fill="none" xmlns="http://www.w3.org/2000/svg">
<g clip-path="url(#clip0_46_15)">
<path d="M9.86991 18.4303C14.3693 18.4303 18.0167 14.7828 18.0167 10.2835C18.0167 5.78416 14.3693 2.13672 9.86991 2.13672C5.37057 2.13672 1.72313 5.78416 1.72313 10.2835C1.72313 14.7828 5.37057 18.4303 9.86991 18.4303Z" stroke="#838383" stroke-width="1.46642" stroke-linecap="round" stroke-linejoin="round"/>
<path d="M1.72313 10.2837H18.0167" stroke="#838383" stroke-width="1.46642" stroke-linecap="round" stroke-linejoin="round"/>
<path d="M9.86994 2.13672C11.9077 4.3676 13.0657 7.2627 13.1287 10.2835C13.0657 13.3043 11.9077 16.1994 9.86994 18.4303C7.8322 16.1994 6.67416 13.3043 6.61123 10.2835C6.67416 7.2627 7.8322 4.3676 9.86994 2.13672Z" stroke="#838383" stroke-width="1.46642" stroke-linecap="round" stroke-linejoin="round"/>
</g>
<defs>
<clipPath id="clip0_46_15">
<rect width="19.5523" height="19.5523" fill="white" transform="translate(0.09375 0.506836)"/>
</clipPath>
</defs>
</svg>
