<svg width="20" height="21" viewBox="0 0 20 21" fill="none" xmlns="http://www.w3.org/2000/svg">
<g clip-path="url(#clip0_52_80)">
<path d="M9.86991 18.5397C14.3693 18.5397 18.0167 14.8922 18.0167 10.3929C18.0167 5.89353 14.3693 2.24609 9.86991 2.24609C5.37057 2.24609 1.72313 5.89353 1.72313 10.3929C1.72313 14.8922 5.37057 18.5397 9.86991 18.5397Z" stroke="#838383" stroke-width="1.46642" stroke-linecap="round" stroke-linejoin="round"/>
<path d="M1.72313 10.3926H18.0167" stroke="#838383" stroke-width="1.46642" stroke-linecap="round" stroke-linejoin="round"/>
<path d="M9.86994 2.24609C11.9077 4.47697 13.0657 7.37208 13.1287 10.3929C13.0657 13.4137 11.9077 16.3088 9.86994 18.5397C7.8322 16.3088 6.67416 13.4137 6.61123 10.3929C6.67416 7.37208 7.8322 4.47697 9.86994 2.24609Z" stroke="#838383" stroke-width="1.46642" stroke-linecap="round" stroke-linejoin="round"/>
</g>
<defs>
<clipPath id="clip0_52_80">
<rect width="19.5523" height="19.5523" fill="white" transform="translate(0.09375 0.616211)"/>
</clipPath>
</defs>
</svg>
