<svg width="20" height="20" viewBox="0 0 20 20" fill="none" xmlns="http://www.w3.org/2000/svg">
<g clip-path="url(#clip0_84_231)">
<path d="M9.86993 17.9147C14.3693 17.9147 18.0167 14.2672 18.0167 9.76788C18.0167 5.26853 14.3693 1.62109 9.86993 1.62109C5.37058 1.62109 1.72314 5.26853 1.72314 9.76788C1.72314 14.2672 5.37058 17.9147 9.86993 17.9147Z" stroke="#838383" stroke-width="1.46642" stroke-linecap="round" stroke-linejoin="round"/>
<path d="M1.72314 9.76758H18.0167" stroke="#838383" stroke-width="1.46642" stroke-linecap="round" stroke-linejoin="round"/>
<path d="M9.87004 1.62109C11.9078 3.85197 13.0658 6.74708 13.1288 9.76788C13.0658 12.7887 11.9078 15.6838 9.87004 17.9147C7.8323 15.6838 6.67426 12.7887 6.61133 9.76788C6.67426 6.74708 7.8323 3.85197 9.87004 1.62109Z" stroke="#838383" stroke-width="1.46642" stroke-linecap="round" stroke-linejoin="round"/>
</g>
<defs>
<clipPath id="clip0_84_231">
<rect width="19.5523" height="19.5523" fill="white" transform="translate(0.09375 -0.00878906)"/>
</clipPath>
</defs>
</svg>
