<svg width="20" height="21" viewBox="0 0 20 21" fill="none" xmlns="http://www.w3.org/2000/svg">
<g clip-path="url(#clip0_84_662)">
<path d="M9.86993 18.8815C14.3693 18.8815 18.0167 15.234 18.0167 10.7347C18.0167 6.23533 14.3693 2.58789 9.86993 2.58789C5.37058 2.58789 1.72314 6.23533 1.72314 10.7347C1.72314 15.234 5.37058 18.8815 9.86993 18.8815Z" stroke="#838383" stroke-width="1.46642" stroke-linecap="round" stroke-linejoin="round"/>
<path d="M1.72314 10.7363H18.0167" stroke="#838383" stroke-width="1.46642" stroke-linecap="round" stroke-linejoin="round"/>
<path d="M9.86992 2.58789C11.9077 4.81877 13.0657 7.71388 13.1286 10.7347C13.0657 13.7555 11.9077 16.6506 9.86992 18.8815C7.83218 16.6506 6.67414 13.7555 6.61121 10.7347C6.67414 7.71388 7.83218 4.81877 9.86992 2.58789Z" stroke="#838383" stroke-width="1.46642" stroke-linecap="round" stroke-linejoin="round"/>
</g>
<defs>
<clipPath id="clip0_84_662">
<rect width="19.5523" height="19.5523" fill="white" transform="translate(0.09375 0.958984)"/>
</clipPath>
</defs>
</svg>
